<svg style="fill-rule:evenodd;clip-rule:evenodd;stroke-linejoin:round;stroke-miterlimit:2;" xml:space="preserve" xmlns:xlink="http://www.w3.org/1999/xlink" xmlns="http://www.w3.org/2000/svg" version="1.1" viewBox="0 0 1663 1704" height="100%" width="100%">
    <g transform="matrix(39.5189,0,0,35.3284,-18233,-2847.11)">
        <g transform="matrix(1.03348,0,0,1.03348,-13.2726,-11.8969)">
            <g transform="matrix(0.0184714,-5.7769e-21,5.16432e-21,-0.0207096,53.0901,352.973)">
                <path style="fill:rgb(229,113,53);fill-rule:nonzero;" d="M23925,11734C23963,11580 23916,11266 23833,11120C23747,10970 23538,10803 23359,10741C23287,10717 23090,10696 22998,10703C22941,10707 22897,10719 22810,10755C22659,10817 22616,10846 22478,10981C22369,11088 22359,11101 22312,11200C22249,11331 22234,11376 22221,11476C22200,11629 22233,11780 22327,11962C22387,12077 22431,12135 22522,12218C22685,12365 23001,12442 23250,12394C23361,12373 23425,12348 23512,12291C23746,12138 23863,11980 23925,11734Z"></path>
                <clipPath id="_clip1">
                    <path clip-rule="nonzero" d="M23925,11734C23963,11580 23916,11266 23833,11120C23747,10970 23538,10803 23359,10741C23287,10717 23090,10696 22998,10703C22941,10707 22897,10719 22810,10755C22659,10817 22616,10846 22478,10981C22369,11088 22359,11101 22312,11200C22249,11331 22234,11376 22221,11476C22200,11629 22233,11780 22327,11962C22387,12077 22431,12135 22522,12218C22685,12365 23001,12442 23250,12394C23361,12373 23425,12348 23512,12291C23746,12138 23863,11980 23925,11734Z"></path>
                </clipPath>
                <g clip-path="url(#_clip1)">
                    <g transform="matrix(47.6621,-1.32952e-17,1.32952e-17,-47.5535,-169.909,17535.4)">
                        <path style="fill:rgb(220,95,30);" d="M469.265,118.47C469.265,118.47 473.242,132.25 485.365,134.74C498.797,137.499 506.411,128.276 506.351,128.591C506.228,129.245 509.329,141.193 496.084,143.217C492.146,143.819 487.419,145.76 483.861,144.98C475.455,143.139 469.793,136.071 469.265,131.927C468.514,126.029 469.265,118.47 469.265,118.47Z"></path>
                    </g>
                </g>
            </g>
            <g transform="matrix(0.880385,0,0,0.984813,49.9516,-10.1786)">
                <path style="fill:rgb(229,141,53);" d="M468.517,124.818C468.517,124.818 470.412,119.348 475.828,115.744C483.197,110.839 495.735,108.874 506.376,124.075C506.487,124.029 505.548,113.942 496.814,109.534C491.776,106.991 484.726,106.903 478.789,109.534C474.406,111.476 469.676,116.862 468.517,124.818Z"></path>
            </g>
        </g>
        <g transform="matrix(0.909862,0,0,1.01779,38.3515,-22.4162)">
            <path style="fill:rgb(187,68,68);" d="M472.177,135.123C472.177,135.123 476.116,126.205 485.691,121.636C490.527,119.328 496.799,118.136 504.725,119.748C505.011,119.806 505.29,119.621 505.348,119.336C505.406,119.05 505.221,118.772 504.936,118.714C496.732,117.045 490.242,118.295 485.237,120.683C475.293,125.428 471.211,134.697 471.211,134.697C471.094,134.963 471.215,135.275 471.481,135.393C471.748,135.51 472.059,135.389 472.177,135.123Z"></path>
        </g>
        <g transform="matrix(0.909862,0,0,1.01779,38.3515,-22.4162)">
            <path style="fill:rgb(187,68,68);" d="M493.86,143.62C494.233,141.072 494.361,137.16 494.035,133.177C493.733,129.486 493.038,125.736 491.802,122.942C490.328,119.609 488.379,116.952 486.437,114.891C482.558,110.774 478.704,109.036 478.704,109.036C478.439,108.916 478.126,109.034 478.006,109.299C477.886,109.565 478.004,109.878 478.269,109.998C478.269,109.998 481.953,111.672 485.669,115.615C487.539,117.6 489.417,120.159 490.837,123.369C492.031,126.069 492.691,129.696 492.983,133.263C493.302,137.155 493.18,140.977 492.816,143.467C492.774,143.756 492.974,144.024 493.262,144.066C493.55,144.108 493.818,143.908 493.86,143.62Z"></path>
        </g>
        <g transform="matrix(0.909862,0,0,1.01779,38.3515,-22.4162)">
            <path style="fill:rgb(187,68,68);" d="M470.035,121.908C470.035,121.908 473.548,121.698 477.13,123.273C479.108,124.143 481.109,125.561 482.538,127.875C483.506,129.444 483.916,131.586 483.881,133.932C483.836,136.953 483.045,140.31 481.684,143.268C481.562,143.532 481.678,143.846 481.943,143.968C482.207,144.09 482.521,143.974 482.643,143.709C484.066,140.616 484.889,137.106 484.936,133.948C484.975,131.378 484.496,129.039 483.436,127.321C481.881,124.802 479.707,123.253 477.555,122.307C473.727,120.623 469.971,120.854 469.971,120.854C469.68,120.872 469.458,121.122 469.476,121.413C469.494,121.703 469.744,121.925 470.035,121.908Z"></path>
        </g>
        <g transform="matrix(0.909862,0,0,1.01779,38.3515,-22.4162)">
            <path style="fill:rgb(187,68,68);" d="M494.405,109.047C494.415,109.08 494.425,109.117 494.433,109.151C494.467,109.309 494.493,109.506 494.517,109.738C494.736,111.818 494.757,116.461 496.945,121.766C498.417,125.333 500.863,129.199 505.004,132.787C505.224,132.978 505.557,132.954 505.748,132.734C505.939,132.514 505.915,132.181 505.695,131.99C501.702,128.529 499.34,124.804 497.921,121.364C495.787,116.189 495.78,111.657 495.567,109.627C495.498,108.971 495.375,108.53 495.225,108.325C495.016,108.039 494.753,107.95 494.431,108.034C494.15,108.107 493.98,108.396 494.054,108.677C494.101,108.859 494.238,108.994 494.405,109.047Z"></path>
        </g>
        <g transform="matrix(0.880385,0,0,0.984813,-17.0351,-327.69)">
            <path style="fill:rgb(34,31,145);" d="M575.851,458.222C575.254,458.528 574.383,458.893 572.827,459.229C571.074,459.608 569.459,459.601 569.459,459.601L567.162,459.828C566.918,459.776 565.095,459.87 563.989,459.827L562.562,459.448C562.379,459.435 561.693,459.086 561.107,458.878C560.443,458.643 559.755,458.168 558.964,457.775C556.276,456.45 555.668,456.037 554.042,454.494C551.353,451.907 548.838,448.343 548.274,446.257C548.101,445.67 547.862,444.996 547.754,444.801C547.169,443.758 546.887,438.368 547.299,436.39C547.58,435.021 548.773,431.913 549.814,429.848C552.047,425.393 556.514,421.916 561.415,420.829C562.672,420.547 563.93,420.264 564.233,420.221C564.537,420.155 565.946,420.134 567.378,420.155C569.698,420.177 570.261,420.286 572.538,420.981C574.663,421.633 575.466,422.003 577.2,423.176C579.781,424.893 582.361,427.175 583.553,428.762C584.768,430.348 585.83,432.695 586.524,435.26C587.001,437.064 587.088,437.781 587.088,440.606C587.088,443.562 587.023,444.04 586.502,445.627L586.074,447.534L585.242,449.306C584.548,451.736 581.104,454.607 581.104,454.607L579.332,456.035C578.573,456.752 577.234,457.514 575.851,458.222ZM583.38,449.408C585.18,446.235 586.199,439.411 585.375,436.064C584.031,430.718 581.494,427.284 576.42,423.959C574.533,422.72 573.145,422.177 570.739,421.72C565.339,420.677 558.487,422.35 554.953,425.545C552.98,427.349 552.026,428.61 550.725,431.109C548.686,435.064 547.971,438.346 548.426,441.671C548.708,443.844 549.033,444.822 550.399,447.669C551.418,449.821 551.635,450.104 553.999,452.429C556.991,455.363 557.924,455.993 561.198,457.341C563.084,458.123 564.038,458.384 565.274,458.471C567.269,458.623 571.541,458.167 573.102,457.645C576.983,456.297 581.515,452.668 583.38,449.408Z"></path>
        </g>
        <g transform="matrix(0.554424,0.0689036,-0.0578834,0.64563,220.118,-9.85145)">
            <ellipse style="fill:white;" ry="4.036" rx="4.424" cy="108.999" cx="491.166"></ellipse>
        </g>
        <g transform="matrix(0.24185,0.0132728,-0.0120852,0.30526,364.934,61.8402)">
            <ellipse style="fill:white;" ry="4.036" rx="4.424" cy="108.999" cx="491.166"></ellipse>
        </g>
    </g>
</svg>
